<svg width="243" height="103" viewBox="0 0 243 103" fill="none" xmlns="http://www.w3.org/2000/svg">
<path d="M214.441 51.2714C228.692 51.2714 240.246 39.7939 240.246 25.6357C240.246 11.4775 228.692 0 214.441 0C200.189 0 188.636 11.4775 188.636 25.6357C188.636 39.7939 200.189 51.2714 214.441 51.2714Z" fill="#57E1FF"/>
<path d="M214.44 47.3279C226.499 47.3279 236.275 37.6162 236.275 25.6362C236.275 13.6561 226.499 3.94441 214.44 3.94441C202.381 3.94441 192.605 13.6561 192.605 25.6362C192.605 37.6162 202.381 47.3279 214.44 47.3279Z" fill="#D3FF57"/>
<path d="M214.44 42.0699C223.575 42.0699 230.981 34.7125 230.981 25.6367C230.981 16.561 223.575 9.20361 214.44 9.20361C205.304 9.20361 197.898 16.561 197.898 25.6367C197.898 34.7125 205.304 42.0699 214.44 42.0699Z" fill="#FF5757"/>
<path d="M214.439 36.8083C220.651 36.8083 225.687 31.8053 225.687 25.6338C225.687 19.4622 220.651 14.4592 214.439 14.4592C208.226 14.4592 203.19 19.4622 203.19 25.6338C203.19 31.8053 208.226 36.8083 214.439 36.8083Z" fill="#1C1C1F"/>
<path d="M152.882 102.435V42.9291H168.508V68.8014L168.291 60.9135C168.291 52.5767 171.321 50.0416 173.394 47.9825C177.364 44.0386 182.108 42.0665 188.691 42.0665H191.079V58.8835H186.521C182.108 58.8835 178.672 60.0696 176.212 62.4412C173.825 64.8127 172.631 68.2265 172.631 72.6823V102.435H152.882Z" fill="#161411"/>
<path d="M109.439 102.99C102.639 102.99 97.3579 100.798 93.5963 96.4136C89.9069 91.9579 88.062 86.4812 88.062 77.3541V42.8575H107.811V77.8929C107.811 80.5519 108.607 82.7082 110.199 84.361C111.79 86.0141 113.924 86.8404 116.601 86.8404C119.278 86.8404 121.448 86.0141 123.112 84.361C124.776 82.7082 125.607 80.4801 125.607 77.6773V42.8575H145.357V102.364H129.731V96.5771C127.385 98.9397 125.936 99.7247 122.469 101.36C118.499 103.231 114.792 102.99 110.307 102.99H109.439Z" fill="#161411"/>
<path d="M206.558 102.543V43.0364H226.308V102.543H206.558ZM198.962 57.2665V43.0364H226.308V57.2665H198.962Z" fill="#161411"/>
<path d="M0 102.543V90.3613L26.5857 58.56V60.2846L23.7644 56.8351L25.9346 57.913H0.217026V43.0363H48.831V55.218L22.2452 87.0196V85.2946L25.0666 88.7442L22.8963 87.6662H49.4819V102.543H0Z" fill="#161411"/>
<path d="M59.6829 102.541V23.8461H79.4324V102.541H59.6829ZM52.9551 38.0758V23.8461H79.4324V38.0758H52.9551Z" fill="#161411"/>
</svg>
